<?xml version="1.0" encoding="utf-8"?>
<!-- Generator: Adobe Illustrator 24.0.0, SVG Export Plug-In . SVG Version: 6.00 Build 0)  -->
<svg version="1.1" id="aba16abf-74ec-4083-b0a4-a35ae9239d47"
	 xmlns="http://www.w3.org/2000/svg" xmlns:xlink="http://www.w3.org/1999/xlink" x="0px" y="0px" viewBox="0 0 256.9 256.9"
	 style="enable-background:new 0 0 256.9 256.9;" xml:space="preserve">
<style type="text/css">
	.st0{fill:url(#SVGID_1_);}
</style>
<title>ErgoPool Logo v3.0 Assets</title>
<linearGradient id="SVGID_1_" gradientUnits="userSpaceOnUse" x1="67.1359" y1="68.2141" x2="183.1659" y2="184.2441" gradientTransform="matrix(1 0 0 -1 0 258)">
	<stop  offset="0" style="stop-color:#1B57B6"/>
	<stop  offset="0.5" style="stop-color:#09C693"/>
	<stop  offset="0.9" style="stop-color:#09C693"/>
</linearGradient>
<path class="st0" d="M153.5,164.9h-50.3c-3.3,0-6-2.7-6-6c0-1.6,0.6-3.1,1.7-4.2l25.6-26.2L99,103.3c-2.4-2.3-2.4-6.1,0-8.5
	c1.1-1.1,2.7-1.8,4.3-1.8h50.3c3.3,0,6,2.7,6,6s-2.7,6-6,6h-35.7l19.4,19.1c2.3,2.3,2.4,6.1,0.1,8.5l-19.8,20.3h36c3.3,0,6,2.7,6,6
	S156.8,164.9,153.5,164.9L153.5,164.9z M42.9,138c2.2-3,5.8-4.7,9.5-4.7c0.5,0,1.1,0,1.6,0.1l-0.6-1.5c-0.9-2.2-0.9-4.7,0-6.9
	l14.5-35c0.6-2.1-0.1-4.3-1.6-5.8c-2.4-2.3-6.3-2.2-8.6,0.2c-0.5,0.5-0.8,1-1.1,1.6c0,0.1-0.1,0.1-0.1,0.2l-14.2,34.3
	c-2.1,5.1-2.1,10.9,0,16.1L42.9,138z M70.5,79.9c0.4,0.4,0.7,0.8,1,1.2l1.4-3.3c0.9-2.2,2.7-4,4.9-4.9l32.5-13.4
	c2.4-0.9,4-3.2,4-5.7c0-3.3-2.7-5.9-5.9-5.9c-0.8,0-1.5,0.1-2.2,0.4L73.2,61.8C68,63.9,63.9,68,61.8,73.2l-1.4,3.4
	C64.1,76,67.8,77.3,70.5,79.9z M115.6,44.3c3,2.2,4.7,5.7,4.7,9.5c0,0.5,0,1.1-0.1,1.6l4.9-2l0,0c2.2-0.9,4.7-0.9,6.9,0l35,14.5
	c2.1,0.6,4.4,0,6-1.6c2.3-2.4,2.2-6.2-0.2-8.6c-0.5-0.5-1.1-0.9-1.7-1.1l0,0l-34.6-14.3c-5.1-2.1-10.9-2.1-16.1,0l0,0L115.6,44.3z
	 M177.2,70.5c-0.4,0.4-0.8,0.7-1.2,1.1l3.1,1.3c2.2,0.9,4,2.7,4.9,4.9l13.9,33.5c1.1,1.9,3.1,3.1,5.3,3.1c3.3,0,6-2.7,6-6
	c0-0.7-0.1-1.4-0.4-2.1c0,0,0-0.1,0-0.2l-13.6-32.9c-2.1-5.2-6.2-9.2-11.4-11.4l-3.2-1.3C181.1,64.2,179.8,67.9,177.2,70.5z
	 M79.6,186.2c0.4-0.4,0.8-0.7,1.2-1l-2.9-1.2c-2.2-0.9-4-2.7-4.9-4.9l-15.2-36.6c-1.1-2-3.1-3.2-5.4-3.2c-3.3,0-5.9,2.7-5.9,5.9
	c0,0.8,0.1,1.5,0.4,2.2l0,0l15,36.2c2.1,5.2,6.2,9.3,11.4,11.4l3,1.2C75.6,192.6,76.9,188.9,79.6,186.2z M214.7,120.4l-2-4.8
	c-2.2,3-5.8,4.7-9.5,4.7c-0.5,0-1.1,0-1.6-0.1l2,4.8c0.9,2.2,0.9,4.7,0,6.9l-14.4,34.8c-0.5,2.1,0.1,4.2,1.6,5.8
	c2.3,2.3,6.1,2.3,8.4,0c0.5-0.5,1-1.2,1.3-1.8c0-0.1,0.1-0.1,0.1-0.2l14-33.9C216.8,131.4,216.8,125.6,214.7,120.4z M186.6,176.7
	c-0.4-0.4-0.7-0.8-1-1.2l-1.6,3.7c-0.9,2.2-2.7,4-4.9,4.9l-35.4,14.7c-1.7,1.1-2.7,3-2.7,5.1c0,3.3,2.7,5.9,5.9,5.9
	c0.8,0,1.5-0.1,2.2-0.4c0.1,0,0.2,0,0.3,0l34.2-14.2c5.2-2.1,9.2-6.2,11.4-11.4l1.5-3.7C192.9,180.6,189.2,179.3,186.6,176.7z
	 M135,203.8c0-0.5,0-1,0.1-1.5l-3.2,1.3c-2.2,0.9-4.7,0.9-6.9,0l-35.6-14.8c-2-0.4-4.1,0.2-5.6,1.6c-2.3,2.4-2.2,6.3,0.2,8.6
	c0.5,0.4,1,0.8,1.6,1.1c0.1,0,0.2,0.1,0.2,0.2l34.6,14.3c5.1,2.1,10.9,2.1,16.1,0l3.3-1.4C136.8,211.1,135,207.5,135,203.8z"/>
</svg>
